<?xml version="1.0" encoding="UTF-8" standalone="no"?>
<!-- Created with Inkscape (http://www.inkscape.org/) -->

<svg
   version="1.1"
   id="svg9"
   width="481.33334"
   height="161.33333"
   viewBox="0 0 481.33334 161.33333"
   sodipodi:docname="Screenshot 2023-05-16 at 9.04.35.svg"
   inkscape:version="1.2.1 (9c6d41e, 2022-07-14)"
   xmlns:inkscape="http://www.inkscape.org/namespaces/inkscape"
   xmlns:sodipodi="http://sodipodi.sourceforge.net/DTD/sodipodi-0.dtd"
   xmlns="http://www.w3.org/2000/svg"
   xmlns:svg="http://www.w3.org/2000/svg">
  <defs
     id="defs13" />
  <sodipodi:namedview
     id="namedview11"
     pagecolor="#ffffff"
     bordercolor="#666666"
     borderopacity="1.0"
     inkscape:showpageshadow="2"
     inkscape:pageopacity="0.0"
     inkscape:pagecheckerboard="0"
     inkscape:deskcolor="#d1d1d1"
     showgrid="false"
     inkscape:zoom="1.46281"
     inkscape:cx="200.29943"
     inkscape:cy="90.920901"
     inkscape:window-width="1411"
     inkscape:window-height="714"
     inkscape:window-x="0"
     inkscape:window-y="38"
     inkscape:window-maximized="0"
     inkscape:current-layer="g3221" />
  <g
     inkscape:groupmode="layer"
     inkscape:label="Image"
     id="g15">
    <g
       id="g3221"
       transform="translate(-4.1016948,2.0508446)">
      <path
         style="fill:#7ab7ed;stroke-width:0.666667"
         d="m 84.048388,49.57676 c 4.195948,6.863439 13.390452,-5.113325 5.820172,-7.537621 -4.07101,-1.728547 -9.655114,4.02559 -5.820172,7.537621 z m -13.1676,6.312046 c 6.673344,3.923835 10.647009,-9.821346 2.779311,-9.777517 -4.961629,-0.396389 -8.063417,7.8523 -2.779311,9.777517 z m 15.500167,4.396907 c 6.22327,4.899693 5.80387,-9.693234 -0.259861,-3.983976 -1.188707,1.040896 -0.837753,3.020366 0.259861,3.983976 z m -25.760665,3.32507 c 4.585169,4.144252 3.940098,-7.047587 -0.353242,-2.232755 -0.431275,0.72195 -0.147038,1.636892 0.353242,2.232755 z m 11.525164,14.613829 c 6.999913,4.184325 16.462194,-4.772515 12.669419,-12.020318 -2.611556,-6.933458 -13.986952,-7.75257 -17.025239,-0.715119 -2.347357,4.458269 -0.221092,10.643861 4.35582,12.735437 z M 92.343195,103.27508 C 73.507493,107.63826 52.260828,92.815958 51.274123,73.183541 49.818782,59.846496 57.026909,46.258947 68.829707,39.907858 c 13.577626,-7.979535 32.388723,-4.719796 42.489633,7.374676 10.05999,11.325235 11.48194,29.617518 2.39653,41.955839 -4.93832,7.234313 -12.86343,12.188497 -21.372675,14.036707 z m 41.180615,23.20111 c 4.48772,3.04637 6.9566,10.03461 12.96211,10.16092 5.98482,-0.66046 5.73827,-8.90066 2.19288,-12.24839 -6.10953,-4.39716 -10.38796,-11.02806 -16.89023,-14.87813 -5.51335,-2.54285 -11.18113,-6.00907 -14.18317,-11.422642 -2.27864,-5.388313 3.26358,-8.808895 4.92028,-13.315989 3.34088,-6.814712 2.88263,-14.615025 2.21431,-21.940347 C 122.90162,51.770556 115.84036,41.738777 106.47835,35.693247 95.6438,28.988901 81.517737,28.092575 69.805188,32.9388 c -11.5363,5.029331 -20.597395,15.42216 -23.368834,27.779946 -4.92764,18.574124 6.387154,39.051517 23.923213,46.187334 11.942978,5.00606 26.211308,3.37113 36.923323,-3.83605 6.23821,-4.245294 11.63777,4.42161 14.58486,9.01712 2.43735,5.84406 7.11579,10.14898 11.65606,14.38904 z"
         id="path3225"
         sodipodi:nodetypes="scccccccccccssssscccsscccsssscssssscccccsccscccsscccccccscccscccsscccccccsscccccccscccccssscccssscccsscsscccsscccsscccccsscccccc" />
      <path
         style="fill:#373737;stroke:none;stroke-width:0.667;stroke-dasharray:none"
         d="m 171.46191,103.5873 c -0.44924,-20.946904 -0.0173,-41.906296 0.0183,-62.858485 6.18697,-0.124147 12.37393,-0.248293 18.5609,-0.37244 6.10455,12.301768 9.26758,26.126615 14.5797,38.886922 2.31332,8.579696 3.72218,-0.858684 4.92302,-3.928213 3.70768,-11.544538 7.35519,-23.109627 11.26972,-34.586269 6.44444,0 12.88889,0 19.33333,0 0,21.111108 0,42.222217 0,63.333325 -4.11111,0.12779 -8.22222,0.25557 -12.33333,0.38336 -0.23941,-14.290515 0.50329,-28.692267 -0.83739,-42.891067 -3.10445,2.581708 -5.34757,14.86312 -8.03186,20.461712 -2.54091,7.348154 -5.0787,14.697391 -7.61831,22.045995 -3.35611,-0.19833 -7.29778,0.90344 -10.31913,-0.0381 -5.90243,-13.328688 -9.81926,-27.561138 -15.10569,-41.169194 -2.82935,-2.962768 -0.83259,5.6093 -1.47509,7.634697 -0.0931,11.190862 -0.18613,22.381725 -0.2792,33.572587 -4.11862,0.12789 -8.23725,0.25577 -12.35587,0.38366 l -0.196,-0.51128 z m 82.00815,0.0213 c -0.46299,-20.953676 -0.0236,-41.920521 0.0102,-62.879785 12.82818,0.122473 25.74021,-0.243878 38.51626,0.182486 7.19425,1.814407 13.12028,8.892688 11.7878,16.460209 1.64716,5.870051 -9.73306,9.942577 -5.31126,13.687655 7.5515,3.428871 9.16634,12.933929 7.99912,20.245082 -2.02072,3.230466 -3.18331,7.245785 -6.9405,8.888053 -6.66881,5.64092 -15.46672,3.36782 -23.38175,3.98495 -7.44751,0.10368 -14.89503,0.20737 -22.34255,0.31106 l -0.19601,-0.51128 -0.14126,-0.36847 z m 34.53158,-10.787735 c 5.0447,-1.281147 5.42957,-6.50766 4.96806,-10.578649 -1.03359,-3.429525 -3.54131,-5.37065 -6.82281,-6.530471 -6.22222,0.116809 -12.44445,0.233612 -18.66667,0.35041 0.0787,5.875102 -0.8619,11.908152 0.29149,17.66667 6.33514,-0.286471 12.90192,0.568656 19.09319,-0.426846 0.37891,-0.160371 0.75783,-0.320743 1.13674,-0.481114 z m 0.53494,-28.93589 c 2.77622,-1.858472 2.11984,-5.704244 1.60511,-8.406715 -3.27504,-5.962978 -9.98591,-4.201663 -15.4467,-4.246301 -2.67822,0.718349 -8.52742,-1.754565 -7.29425,2.900187 0.68894,3.75123 -2.48655,11.714366 2.05192,12.326206 5.71342,-0.132074 11.42685,-0.264142 17.14028,-0.396207 0.64787,-0.725708 1.29579,-1.451521 1.94364,-2.17717 z m 28.91567,39.677175 c -0.43294,-20.938898 -0.01,-41.889501 0.028,-62.833335 10.52846,0.07778 21.133,-0.716016 31.61391,-0.09356 6.76916,1.248295 14.01436,3.705839 17.96115,9.708904 5.03768,6.345854 7.0363,14.517713 6.38621,22.479781 1.13151,13.835254 -8.01109,28.668372 -22.33735,30.988762 -6.88118,1.30467 -14.06592,0.23972 -21.07029,0.58277 -4.08738,0 -8.17476,0 -12.26214,0 l -0.196,-0.51128 -0.12346,-0.32205 z m 30.49516,-11.250935 c 4.49149,0.0054 6.62226,-4.345804 9.71825,-6.91572 3.02702,-7.666842 2.91014,-16.35597 0.0924,-24.085813 -1.40069,-4.200884 -4.68376,-6.690742 -8.67237,-8.123626 -4.52853,-2.296757 -9.98461,-0.880397 -14.92039,-1.546848 -3.94907,-0.756827 -4.05408,3.731652 -3.68513,6.514282 0,11.102885 0,22.20577 0,33.308655 2.00282,2.995962 6.05903,1.068032 9.07815,1.584673 2.80546,-0.08649 5.62269,-0.232187 8.38904,-0.735603 z m 36.19387,10.584265 c -0.49952,-20.71564 -0.0335,-41.445146 0.006,-62.166665 11.85715,0.06679 23.80517,-0.621601 35.60585,-0.08551 4.75878,0.927045 9.59511,2.257373 12.30298,6.72855 2.99067,4.875924 3.43267,11.810518 0.23354,16.583012 -4.02439,3.142894 -7.02713,7.155576 -0.16986,9.14359 4.25374,3.57738 5.88338,8.975417 5.27248,14.318028 0.38188,3.915092 -2.33197,7.511103 -4.17044,10.690477 -3.77708,2.813905 -7.75761,5.170325 -12.50176,5.809615 -7.6864,1.0896 -15.62646,0.18413 -23.41391,0.47889 -4.26668,0 -8.53337,0 -12.80005,0 -0.12149,-0.49999 -0.24285,-1.00016 -0.36444,-1.49999 z m 34.52703,-10.074645 c 5.0447,-1.281147 5.42957,-6.50766 4.96806,-10.578649 -1.03359,-3.429536 -3.54131,-5.370619 -6.82281,-6.530441 -6.22222,0.116809 -12.44445,0.233612 -18.66667,0.35041 0.0787,5.875102 -0.8619,11.908152 0.29149,17.66667 6.33514,-0.286479 12.90192,0.568671 19.09318,-0.426858 0.37892,-0.160377 0.75783,-0.320755 1.13675,-0.481132 z m -1.52878,-27.42154 c 4.29985,-1.542775 4.65758,-6.372466 3.66883,-9.921035 -3.27504,-5.962978 -9.98591,-4.201663 -15.4467,-4.246301 -2.67822,0.718349 -8.52742,-1.754565 -7.29425,2.900187 0.70325,3.730837 -2.50385,11.60074 2.01367,12.263329 5.18342,-0.177207 10.53728,0.346221 15.61841,-0.251517 0.48001,-0.248221 0.96004,-0.496464 1.44004,-0.744663 z"
         id="path3223" />
    </g>
  </g>
</svg>
